<?xml version="1.0" encoding="utf-8"?>
<!-- Generator: Adobe Illustrator 27.2.0, SVG Export Plug-In . SVG Version: 6.00 Build 0)  -->
<svg version="1.1" id="Layer_1" xmlns="http://www.w3.org/2000/svg" xmlns:xlink="http://www.w3.org/1999/xlink" x="0px" y="0px"
	 viewBox="0 0 13 13" style="enable-background:new 0 0 13 13;" xml:space="preserve">
<style type="text/css">
	.st0{fill:#FFFFFF;}
</style>
<path class="st0" d="M13,6.5c0,3.6-2.9,6.5-6.5,6.5C2.9,13,0,10.1,0,6.5C0,2.9,2.9,0,6.5,0C10.1,0,13,2.9,13,6.5z M3.1,6.2
	c0-0.9,0.2-1.7,0.5-2.6l-2.2,0C1,4.4,0.7,5.3,0.6,6.2L3.1,6.2z M6.2,3.6H4.2C4,4.4,3.8,5.3,3.8,6.2h2.4L6.2,3.6z M6.2,0.6
	C5.5,1.3,4.9,2,4.5,3h1.7V0.6z M1.8,3h2c0.3-0.8,0.8-1.5,1.3-2.2C3.8,1.1,2.6,1.9,1.8,3L1.8,3z M12.4,6.2c0-0.9-0.3-1.8-0.8-2.6
	l-2.2,0c0.3,0.8,0.4,1.7,0.5,2.6H12.4z M6.8,6.2h2.4c0-0.9-0.2-1.8-0.5-2.6H6.8V6.2z M6.8,3h1.7C8.1,2,7.5,1.3,6.8,0.6V3z M7.9,0.8
	c0.6,0.6,1,1.4,1.3,2.2h2C10.4,1.9,9.2,1.1,7.9,0.8L7.9,0.8z M0.6,6.8c0,0.9,0.3,1.8,0.8,2.6l2.2,0C3.3,8.6,3.2,7.7,3.1,6.8H0.6z
	 M6.2,6.8H3.8c0,0.9,0.2,1.8,0.5,2.6h1.9L6.2,6.8z M6.2,10H4.5c0.4,0.9,1,1.7,1.7,2.3V10z M5.1,12.2c-0.6-0.6-1-1.4-1.3-2.2h-2
	C2.6,11.1,3.8,11.9,5.1,12.2L5.1,12.2z M9.9,6.8c0,0.9-0.2,1.7-0.5,2.6l2.2,0c0.5-0.8,0.7-1.7,0.8-2.6H9.9z M6.8,9.4h1.9
	C9,8.6,9.2,7.7,9.2,6.8H6.8V9.4z M6.8,12.4C7.5,11.7,8.1,11,8.5,10H6.8V12.4z M11.2,10h-2c-0.3,0.8-0.8,1.5-1.3,2.2
	C9.2,11.9,10.4,11.1,11.2,10L11.2,10z"/>
</svg>
