<svg width="13" height="13" viewBox="0 0 13 13" fill="none" xmlns="http://www.w3.org/2000/svg">
<path d="M13 6.5C13 10.09 10.0897 13 6.5 13C2.91027 13 0 10.09 0 6.5C0 2.91002 2.91027 0 6.5 0C10.0897 0 13 2.91053 13 6.5ZM3.12305 6.18059C3.15038 5.30159 3.30256 4.43095 3.575 3.5948L1.40359 3.59277C0.950889 4.38407 0.690002 5.27047 0.641875 6.18084L3.12305 6.18059ZM6.18287 3.59277H4.24734C3.95213 4.42509 3.78701 5.29795 3.75781 6.18059H6.18338L6.18287 3.59277ZM6.18287 0.642129C5.49936 1.2515 4.92273 2.04191 4.50709 2.95268H6.18287V0.642129ZM1.82432 2.95268H3.8157C4.1425 2.16852 4.58996 1.44031 5.14186 0.794473C3.77178 1.10398 2.60025 1.92969 1.82406 2.95242L1.82432 2.95268ZM12.3576 6.18059C12.3096 5.2702 12.0487 4.38377 11.5959 3.59252L9.42424 3.59455C9.69692 4.43076 9.84935 5.30148 9.87695 6.18059H12.3576ZM6.81738 6.18059H9.24219C9.21309 5.29781 9.0478 4.42483 8.75215 3.59252H6.81738V6.18059ZM6.81738 2.95242H8.49316C8.07625 2.04191 7.49963 1.25252 6.81738 0.641875V2.95242ZM7.8584 0.794219C8.4105 1.43991 8.85798 2.16815 9.18455 2.95242H11.1757C10.3997 1.92969 9.22822 1.10398 7.8584 0.794727V0.794219ZM0.642637 6.81916C0.690678 7.72962 0.951569 8.61613 1.40436 9.40748L3.57576 9.40545C3.303 8.56918 3.15056 7.69836 3.12305 6.81916H0.642637ZM6.18287 6.81916H3.75781C3.78711 7.702 3.9524 8.57503 4.24785 9.40748H6.18338L6.18287 6.81916ZM6.18287 10.0481H4.50709C4.924 10.9586 5.50062 11.7472 6.18287 12.3586V10.0481ZM5.14186 12.2063C4.58996 11.5604 4.1425 10.8322 3.8157 10.0481H1.82406C2.60025 11.0703 3.77178 11.8965 5.1416 12.2053L5.14186 12.2063ZM9.87695 6.81916C9.84956 7.69833 9.6973 8.56914 9.42475 9.40545L11.5964 9.40748C12.0493 8.61617 12.3102 7.72964 12.3581 6.81916H9.87695ZM6.81738 9.40748H8.7524C9.048 8.57508 9.21321 7.70201 9.24219 6.81916H6.81738V9.40748ZM6.81738 12.3584C7.50064 11.7472 8.07752 10.9586 8.49316 10.0478H6.81738V12.3584ZM11.1757 10.0478H9.18455C8.85798 10.8321 8.4105 11.5603 7.8584 12.206C9.22822 11.8965 10.3997 11.0703 11.1757 10.0481V10.0478Z" fill="#231F20"/>
</svg>
